<svg xmlns="http://www.w3.org/2000/svg" viewBox="0 0 1200 630" width="1200" height="630">
  <defs>
    <linearGradient id="bg" x1="0%" y1="0%" x2="100%" y2="100%">
      <stop offset="0%" style="stop-color:#0f172a"/>
      <stop offset="100%" style="stop-color:#1e3a5f"/>
    </linearGradient>
  </defs>

  <!-- Background -->
  <rect width="1200" height="630" fill="url(#bg)"/>

  <!-- Grid pattern -->
  <g stroke="#ffffff" stroke-width="0.5" opacity="0.04">
    <line x1="0" y1="60" x2="1200" y2="60"/>
    <line x1="0" y1="120" x2="1200" y2="120"/>
    <line x1="0" y1="180" x2="1200" y2="180"/>
    <line x1="0" y1="240" x2="1200" y2="240"/>
    <line x1="0" y1="300" x2="1200" y2="300"/>
    <line x1="0" y1="360" x2="1200" y2="360"/>
    <line x1="0" y1="420" x2="1200" y2="420"/>
    <line x1="0" y1="480" x2="1200" y2="480"/>
    <line x1="0" y1="540" x2="1200" y2="540"/>
    <line x1="60" y1="0" x2="60" y2="630"/>
    <line x1="120" y1="0" x2="120" y2="630"/>
    <line x1="180" y1="0" x2="180" y2="630"/>
    <line x1="240" y1="0" x2="240" y2="630"/>
    <line x1="300" y1="0" x2="300" y2="630"/>
    <line x1="360" y1="0" x2="360" y2="630"/>
    <line x1="420" y1="0" x2="420" y2="630"/>
    <line x1="480" y1="0" x2="480" y2="630"/>
    <line x1="540" y1="0" x2="540" y2="630"/>
    <line x1="600" y1="0" x2="600" y2="630"/>
    <line x1="660" y1="0" x2="660" y2="630"/>
    <line x1="720" y1="0" x2="720" y2="630"/>
    <line x1="780" y1="0" x2="780" y2="630"/>
    <line x1="840" y1="0" x2="840" y2="630"/>
    <line x1="900" y1="0" x2="900" y2="630"/>
    <line x1="960" y1="0" x2="960" y2="630"/>
    <line x1="1020" y1="0" x2="1020" y2="630"/>
    <line x1="1080" y1="0" x2="1080" y2="630"/>
    <line x1="1140" y1="0" x2="1140" y2="630"/>
  </g>

  <!-- Blue accent bar top -->
  <rect x="0" y="0" width="1200" height="6" fill="#2563eb"/>

  <!-- Green accent line bottom -->
  <rect x="0" y="624" width="1200" height="6" fill="#10b981"/>

  <!-- Flag + country tag -->
  <text x="80" y="118" font-family="Arial" font-size="36">🇲🇹</text>
  <text x="130" y="112" font-family="Arial, sans-serif" font-size="18" font-weight="600" fill="#94a3b8" letter-spacing="4">AUDIT VACANCY TRACKER</text>

  <!-- Main title -->
  <text x="80" y="210" font-family="Arial, sans-serif" font-size="62" font-weight="800" fill="#ffffff">IT, Internal &amp; External Audit</text>
  <text x="80" y="290" font-family="Arial, sans-serif" font-size="62" font-weight="800" fill="#3b82f6">Malta Vacancies</text>

  <!-- Divider -->
  <rect x="80" y="320" width="120" height="4" rx="2" fill="#10b981"/>

  <!-- Stats row -->
  <rect x="80" y="360" width="280" height="100" rx="10" fill="#1e293b" opacity="0.8"/>
  <text x="220" y="402" font-family="Arial, sans-serif" font-size="42" font-weight="800" fill="#3b82f6" text-anchor="middle">37+</text>
  <text x="220" y="440" font-family="Arial, sans-serif" font-size="14" fill="#64748b" text-anchor="middle">VACANCIES</text>

  <rect x="390" y="360" width="280" height="100" rx="10" fill="#1e293b" opacity="0.8"/>
  <text x="530" y="402" font-family="Arial, sans-serif" font-size="42" font-weight="800" fill="#8b5cf6" text-anchor="middle">10+</text>
  <text x="530" y="440" font-family="Arial, sans-serif" font-size="14" fill="#64748b" text-anchor="middle">SOURCES</text>

  <rect x="700" y="360" width="280" height="100" rx="10" fill="#1e293b" opacity="0.8"/>
  <text x="840" y="402" font-family="Arial, sans-serif" font-size="42" font-weight="800" fill="#10b981" text-anchor="middle">Big 4+</text>
  <text x="840" y="440" font-family="Arial, sans-serif" font-size="14" fill="#64748b" text-anchor="middle">FIRMS COVERED</text>

  <!-- Source tags -->
  <text x="80" y="530" font-family="Arial, sans-serif" font-size="15" fill="#475569">Deloitte · KPMG · PwC · EY · BDO · Forvis Mazars · MFSA · LinkedIn · Keepmeposted · Jobsinmalta</text>

  <!-- URL -->
  <text x="80" y="590" font-family="Arial, sans-serif" font-size="16" fill="#3b82f6">it-audit-malta2.vercel.app</text>
</svg>